<?xml version="1.0" encoding="UTF-8"?>
<svg id="Layer_1" data-name="Layer 1" xmlns="http://www.w3.org/2000/svg" viewBox="0 0 1024 1024">
  <defs>
    <style>
      .cls-1 {
        fill: #5bcc77;
      }
    </style>
  </defs>
  <path class="cls-1" d="M896,640c35.29,0,64,28.71,64,64v192c0,35.29-28.71,64-64,64H128c-35.29,0-64-28.71-64-64v-192c0-35.29,28.71-64,64-64h768M896,576H128C57.31,576,0,633.31,0,704v192c0,70.69,57.31,128,128,128h768c70.69,0,128-57.31,128-128v-192c0-70.69-57.31-128-128-128h0Z"/>
  <rect class="cls-1" x="0" width="1024" height="448" rx="128" ry="128"/>
</svg>